<svg width="63" height="63" viewBox="0 0 63 63" fill="none" xmlns="http://www.w3.org/2000/svg">
<g id="facebook (9) 1" clip-path="url(#clip0_1_731)">
<g id="Group">
<path id="Vector" fill-rule="evenodd" clip-rule="evenodd" d="M31.1864 62.3729H15.5932C11.4577 62.3727 7.49161 60.7298 4.56735 57.8055C1.64309 54.8813 0.000180917 50.9152 0 46.7797L0 15.5932C0.000180917 11.4577 1.64309 7.49161 4.56735 4.56735C7.49161 1.64309 11.4577 0.000180917 15.5932 0L46.7797 0C50.9152 0 54.8814 1.64285 57.8057 4.56715C60.73 7.49145 62.3729 11.4576 62.3729 15.5932V46.7797C62.3729 50.9152 60.73 54.8814 57.8057 57.8057C54.8814 60.73 50.9152 62.3729 46.7797 62.3729H40.9322C40.9322 61.0805 40.4188 59.8411 39.505 58.9272C38.5911 58.0134 37.3517 57.5 36.0593 57.5C34.767 57.5 33.5275 58.0134 32.6137 58.9272C31.6998 59.8411 31.1864 61.0805 31.1864 62.3729Z" fill="#3764B9"/>
<path id="Vector_2" fill-rule="evenodd" clip-rule="evenodd" d="M29.2373 17.5424H46.7797C49.0283 17.5422 51.191 16.6786 52.8211 15.1297C54.4512 13.5809 55.4243 11.4652 55.5394 9.2195C55.6545 6.97383 54.9027 4.76973 53.4395 3.06238C51.9762 1.35502 49.9131 0.274813 47.6763 0.0448305C47.3781 0.0282627 47.0828 0 46.7797 0H15.5932C11.4577 0.000180917 7.49161 1.64309 4.56735 4.56735C1.64309 7.49161 0.000180917 11.4577 0 15.5932L0 46.7797C0.000180924 39.0255 3.08059 31.589 8.5636 26.106C14.0466 20.623 21.4831 17.5426 29.2373 17.5424Z" fill="#507DD2"/>
<path id="Vector_3" fill-rule="evenodd" clip-rule="evenodd" d="M46.7797 31.1865C43.6956 31.1865 40.6808 32.101 38.1165 33.8144C35.5522 35.5278 33.5536 37.9631 32.3734 40.8124C31.1932 43.6617 30.8844 46.797 31.4861 49.8218C32.0877 52.8466 33.5728 55.625 35.7536 57.8058C37.9343 59.9865 40.7128 61.4716 43.7376 62.0733C46.7624 62.675 49.8976 62.3662 52.7469 61.186C55.5962 60.0058 58.0315 58.0071 59.745 55.4428C61.4584 52.8785 62.3729 49.8638 62.3729 46.7797V15.5933C62.3729 19.7288 60.73 23.695 57.8057 26.6193C54.8814 29.5436 50.9152 31.1865 46.7797 31.1865Z" fill="#1E4BA0"/>
<path id="Vector_4" fill-rule="evenodd" clip-rule="evenodd" d="M50.678 17.5425C50.678 18.0594 50.4726 18.5552 50.1071 18.9207C49.7415 19.2863 49.2458 19.4916 48.7288 19.4916H42.8814C42.3644 19.4916 41.8686 19.697 41.5031 20.0625C41.1376 20.428 40.9322 20.9238 40.9322 21.4408V29.2374H48.3C48.5884 29.2374 48.8731 29.3014 49.1338 29.4247C49.3944 29.5481 49.6245 29.7277 49.8073 29.9507C49.9901 30.1737 50.1212 30.4345 50.1911 30.7142C50.2609 30.994 50.2679 31.2858 50.2113 31.5686C49.8495 33.3783 49.3579 35.8362 49.0419 37.416C48.9535 37.8579 48.7148 38.2556 48.3663 38.5413C48.0179 38.827 47.5811 38.9831 47.1305 38.9831H40.9322V62.373H31.1864V38.9831H25.339C24.822 38.9831 24.3263 38.7778 23.9607 38.4122C23.5952 38.0467 23.3898 37.5509 23.3898 37.034V31.1865C23.3898 30.6696 23.5952 30.1738 23.9607 29.8083C24.3263 29.4427 24.822 29.2374 25.339 29.2374H31.1864V21.4408C31.1864 18.3391 32.4186 15.3644 34.6118 13.1712C36.805 10.978 39.7797 9.74585 42.8814 9.74585H48.7288C49.2458 9.74585 49.7415 9.95121 50.1071 10.3167C50.4726 10.6823 50.678 11.1781 50.678 11.695V17.5425Z" fill="white"/>
</g>
</g>
<defs>
<clipPath id="clip0_1_731">
<rect width="62.3729" height="62.3729" fill="white"/>
</clipPath>
</defs>
</svg>
