<svg width="64" height="63" viewBox="0 0 64 63" fill="none" xmlns="http://www.w3.org/2000/svg">
<g id="instagram (7) 1" clip-path="url(#clip0_1_737)">
<path id="Vector" d="M62.1188 11.1562C61.5511 5.83698 57.3501 1.63508 52.0304 1.06785C38.69 -0.355948 25.3105 -0.355948 11.9705 1.06785C6.6508 1.63555 2.44937 5.83698 1.88166 11.1562C0.457869 24.4962 0.457869 37.8762 1.88166 51.2161C2.44937 56.5358 6.6508 60.7373 11.97 61.305C25.31 62.7288 38.69 62.7288 52.0304 61.305C57.3501 60.7373 61.5511 56.5358 62.1188 51.2161C63.5426 37.8762 63.5426 24.4967 62.1188 11.1562Z" fill="url(#paint0_radial_1_737)"/>
<path id="Vector_2" d="M58.7261 13.4124C58.2226 8.69227 54.4947 4.96385 49.7741 4.45991C37.9364 3.19696 26.0636 3.19696 14.2259 4.45991C9.50576 4.96385 5.77735 8.69227 5.2734 13.4124C4.01045 25.2501 4.01045 37.1229 5.2734 48.9601C5.77735 53.6807 9.50576 57.4091 14.2259 57.9126C26.0636 59.176 37.9364 59.176 49.7736 57.9126C54.4942 57.4091 58.2226 53.6807 58.7261 48.9601C59.9895 37.1229 59.9895 25.2501 58.7261 13.4124Z" fill="url(#paint1_linear_1_737)"/>
<path id="Vector_3" d="M1.74818 49.9231C1.79101 50.3542 1.83526 50.7854 1.88142 51.2165C2.44913 56.5357 6.65056 60.7372 11.9703 61.3049C25.3103 62.7287 38.6902 62.7287 52.0302 61.3049C57.3499 60.7372 61.5509 56.5357 62.1186 51.2165C62.1647 50.7854 62.209 50.3542 62.2523 49.9231H1.74818Z" fill="url(#paint2_linear_1_737)"/>
<path id="Vector_4" d="M62.1186 51.2162C62.8838 44.0483 63.2368 36.8688 63.1797 29.6904L48.9228 15.4334C47.1416 13.4 44.54 12.1309 41.4831 12.021C35.1964 11.7945 28.8897 11.8059 22.6021 12.0219C17.3799 12.2018 13.7281 15.7118 12.7916 20.8707C12.6265 21.7815 12.5275 22.7042 12.3976 23.6217V38.7457C12.4695 39.2358 12.5751 39.7236 12.6079 40.2166C12.8173 43.3544 14.1069 46.0421 16.1717 47.8604L30.6799 62.3682C37.7999 62.4181 44.9203 62.0641 52.0302 61.3051C57.3499 60.7374 61.5509 56.536 62.1186 51.2162Z" fill="url(#paint3_linear_1_737)"/>
<path id="Vector_5" d="M62.1186 51.2166C61.5513 56.5354 57.349 60.7378 52.0302 61.305C44.9212 62.0635 37.7994 62.4181 30.6804 62.3681L16.1941 47.8818C17.8734 49.3517 20.0624 50.2468 22.6026 50.3425C28.8888 50.5785 35.1969 50.5723 41.4831 50.3458C47.1687 50.1402 51.2831 45.9321 51.4606 40.2465C51.65 34.2096 51.65 28.1571 51.4606 22.1202C51.3797 19.4973 50.4589 17.1893 48.9323 15.4429L63.1802 29.6908C63.2364 36.8683 62.8833 44.0487 62.1186 51.2166Z" fill="url(#paint4_linear_1_737)"/>
<path id="Vector_6" d="M39.3598 24.4324C37.5334 22.4438 34.9128 21.196 32 21.196C26.4828 21.196 22.0096 25.6692 22.0096 31.1864C22.0096 34.0992 23.2574 36.7198 25.246 38.5462L48.3603 61.6604C49.5838 61.5538 50.8072 61.4354 52.0297 61.305C57.3494 60.7373 61.5509 56.5358 62.1186 51.2161C62.249 49.9936 62.3674 48.7702 62.474 47.5467L39.3598 24.4324Z" fill="url(#paint5_linear_1_737)"/>
<path id="Vector_7" d="M63.0655 37.9052L44.4629 19.3031C44.029 18.7335 43.3451 18.3638 42.5738 18.3638C41.2613 18.3638 40.1968 19.4278 40.1968 20.7407C40.1968 21.5121 40.5665 22.1959 41.1362 22.6299L62.7329 44.2271C62.8795 42.1205 62.9904 40.0129 63.0655 37.9052Z" fill="url(#paint6_linear_1_737)"/>
<path id="Vector_8" d="M12.3976 23.6217C12.5275 22.7042 12.6265 21.7815 12.7916 20.8707C13.7277 15.7118 17.3799 12.2018 22.6021 12.0219C28.8897 11.8059 35.1964 11.7945 41.4831 12.021C47.1668 12.2256 51.2831 16.4342 51.4606 22.1198C51.6495 28.1572 51.6495 34.2092 51.4606 40.2466C51.2831 45.9322 47.1682 50.1403 41.4835 50.3454C35.1969 50.5724 28.8888 50.5781 22.6026 50.3421C16.9179 50.1284 12.9882 45.9103 12.6079 40.2161C12.5751 39.7236 12.4695 39.2353 12.3976 38.7452C12.3976 33.7039 12.3976 28.6625 12.3976 23.6217ZM32.0052 46.9758C34.8823 46.9758 37.7623 47.0619 40.6355 46.9558C45.1406 46.7888 47.9116 44.1001 48.0167 39.5994C48.1471 33.9913 48.1471 28.3756 48.0167 22.767C47.9116 18.2672 45.1387 15.5158 40.6355 15.4201C34.9199 15.2992 29.1981 15.3002 23.4824 15.4201C19.0136 15.5138 16.2345 18.2096 16.1132 22.6599C15.959 28.3389 15.959 34.0279 16.1132 39.7069C16.2345 44.1568 19.0136 46.7902 23.4829 46.9558C26.32 47.0614 29.1643 46.9758 32.0052 46.9758Z" fill="url(#paint7_linear_1_737)"/>
<g id="Group">
<path id="Vector_9" d="M12.3976 23.6217C12.5275 22.7042 12.6265 21.7815 12.7916 20.8707C13.7277 15.7118 17.3799 12.2018 22.6021 12.0219C28.8897 11.8059 35.1964 11.7945 41.4831 12.021C47.1668 12.2256 51.2831 16.4342 51.4606 22.1198C51.6495 28.1572 51.6495 34.2092 51.4606 40.2466C51.2831 45.9322 47.1682 50.1403 41.4835 50.3454C35.1969 50.5724 28.8888 50.5781 22.6026 50.3421C16.9179 50.1284 12.9882 45.9103 12.6079 40.2161C12.5751 39.7236 12.4695 39.2353 12.3976 38.7452C12.3976 33.7039 12.3976 28.6625 12.3976 23.6217ZM32.0052 46.9758C34.8823 46.9758 37.7623 47.0619 40.6355 46.9558C45.1406 46.7888 47.9116 44.1001 48.0167 39.5994C48.1471 33.9913 48.1471 28.3756 48.0167 22.767C47.9116 18.2672 45.1387 15.5158 40.6355 15.4201C34.9199 15.2992 29.1981 15.3002 23.4824 15.4201C19.0136 15.5138 16.2345 18.2096 16.1132 22.6599C15.959 28.3389 15.959 34.0279 16.1132 39.7069C16.2345 44.1568 19.0136 46.7902 23.4829 46.9558C26.32 47.0614 29.1643 46.9758 32.0052 46.9758Z" fill="white"/>
<path id="Vector_10" d="M32 21.1965C26.4828 21.1965 22.0096 25.6692 22.0096 31.1864C22.0096 36.7041 26.4828 41.1768 32 41.1768C37.5177 41.1768 41.9903 36.7041 41.9903 31.1864C41.9903 25.6692 37.5177 21.1965 32 21.1965ZM32 37.7372C28.382 37.7372 25.4492 34.8044 25.4492 31.1864C25.4492 27.5684 28.382 24.6356 32 24.6356C35.618 24.6356 38.5508 27.5684 38.5508 31.1864C38.5508 34.8044 35.618 37.7372 32 37.7372Z" fill="white"/>
<path id="Vector_11" d="M44.9502 20.7407C44.9502 22.0532 43.8862 23.1172 42.5738 23.1172C41.2613 23.1172 40.1968 22.0532 40.1968 20.7407C40.1968 19.4278 41.2613 18.3638 42.5738 18.3638C43.8862 18.3638 44.9502 19.4278 44.9502 20.7407Z" fill="white"/>
</g>
</g>
<defs>
<radialGradient id="paint0_radial_1_737" cx="0" cy="0" r="1" gradientUnits="userSpaceOnUse" gradientTransform="translate(13.5999 54.5089) scale(68.7863)">
<stop stop-color="#FAE100"/>
<stop offset="0.0544" stop-color="#FADC04"/>
<stop offset="0.1167" stop-color="#FBCE0E"/>
<stop offset="0.1829" stop-color="#FCB720"/>
<stop offset="0.2514" stop-color="#FE9838"/>
<stop offset="0.3054" stop-color="#FF7950"/>
<stop offset="0.4922" stop-color="#FF1C74"/>
<stop offset="1" stop-color="#6C1CD1"/>
</radialGradient>
<linearGradient id="paint1_linear_1_737" x1="24.7361" y1="27.1006" x2="-80.9309" y2="-32.3371" gradientUnits="userSpaceOnUse">
<stop stop-color="#A1B5D8" stop-opacity="0"/>
<stop offset="0.3094" stop-color="#90A2BD" stop-opacity="0.309804"/>
<stop offset="0.7554" stop-color="#7C8B9C" stop-opacity="0.756863"/>
<stop offset="1" stop-color="#748290"/>
</linearGradient>
<linearGradient id="paint2_linear_1_737" x1="32" y1="55.0593" x2="32" y2="64.7816" gradientUnits="userSpaceOnUse">
<stop stop-color="#FAE100" stop-opacity="0"/>
<stop offset="0.3068" stop-color="#FCA800" stop-opacity="0.305882"/>
<stop offset="0.6275" stop-color="#FE7300" stop-opacity="0.627451"/>
<stop offset="0.8685" stop-color="#FF5200" stop-opacity="0.866667"/>
<stop offset="1" stop-color="#FF4500"/>
</linearGradient>
<linearGradient id="paint3_linear_1_737" x1="28.4516" y1="27.5499" x2="13.0153" y2="12.1136" gradientUnits="userSpaceOnUse">
<stop stop-color="#833AB4" stop-opacity="0"/>
<stop offset="1" stop-color="#833AB4"/>
</linearGradient>
<linearGradient id="paint4_linear_1_737" x1="43.5608" y1="57.0477" x2="35.8563" y2="20.7265" gradientUnits="userSpaceOnUse">
<stop stop-color="#833AB4" stop-opacity="0"/>
<stop offset="1" stop-color="#833AB4"/>
</linearGradient>
<linearGradient id="paint5_linear_1_737" x1="46.4925" y1="45.6789" x2="15.5469" y2="14.7332" gradientUnits="userSpaceOnUse">
<stop stop-color="#833AB4" stop-opacity="0"/>
<stop offset="1" stop-color="#833AB4"/>
</linearGradient>
<linearGradient id="paint6_linear_1_737" x1="48.7879" y1="26.9548" x2="38.5547" y2="16.7216" gradientUnits="userSpaceOnUse">
<stop stop-color="#833AB4" stop-opacity="0"/>
<stop offset="1" stop-color="#833AB4"/>
</linearGradient>
<linearGradient id="paint7_linear_1_737" x1="44.3842" y1="18.8885" x2="19.153" y2="44.1198" gradientUnits="userSpaceOnUse">
<stop stop-color="#833AB4"/>
<stop offset="0.0922" stop-color="#9C3495"/>
<stop offset="0.2927" stop-color="#DC2546"/>
<stop offset="0.392" stop-color="#FD1D1D"/>
<stop offset="0.5589" stop-color="#FC6831"/>
<stop offset="0.6887" stop-color="#FC9B40"/>
<stop offset="0.7521" stop-color="#FCAF45"/>
<stop offset="0.7806" stop-color="#FDB750"/>
<stop offset="0.8656" stop-color="#FECB6A"/>
<stop offset="0.9415" stop-color="#FFD87A"/>
<stop offset="1" stop-color="#FFDC80"/>
</linearGradient>
<clipPath id="clip0_1_737">
<rect width="62.3729" height="62.3729" fill="white" transform="translate(0.813553)"/>
</clipPath>
</defs>
</svg>
