<svg width="146" height="25" viewBox="0 0 146 25" fill="none" xmlns="http://www.w3.org/2000/svg">
<g id="Jeans Pants">
<path d="M2.24017 24.282C1.3931 24.282 0.653982 24.1882 0.0228271 24.0007V20.7782C0.670591 20.9487 1.26022 21.0339 1.79172 21.0339C2.62219 21.0339 3.21182 20.7696 3.56062 20.2411C3.92602 19.7125 4.10872 18.8856 4.10872 17.7602V0.650146H7.87074V17.7347C7.87074 19.866 7.39737 21.4858 6.45064 22.594C5.50391 23.7194 4.10042 24.282 2.24017 24.282Z" fill="#003B60"/>
<path d="M17.6882 7.40211C16.9076 7.40211 16.293 7.65787 15.8446 8.16938C15.3961 8.68089 15.1387 9.40554 15.0722 10.3433H20.2793C20.2627 9.40554 20.0218 8.68089 19.5568 8.16938C19.1083 7.65787 18.4855 7.40211 17.6882 7.40211ZM18.2114 19.1669C16.019 19.1669 14.3082 18.5446 13.0791 17.2999C11.85 16.0552 11.2355 14.299 11.2355 12.0313C11.2355 9.69539 11.8002 7.88805 12.9296 6.60927C14.0757 5.33049 15.6536 4.6911 17.6633 4.6911C19.59 4.6911 21.0848 5.25376 22.1478 6.37909C23.2274 7.50442 23.7672 9.056 23.7672 11.0339V12.8753H14.9975C15.0307 13.9665 15.338 14.819 15.9193 15.4329C16.5173 16.0296 17.3394 16.328 18.3858 16.328C19.1997 16.328 19.972 16.2428 20.7028 16.0723C21.4336 15.8847 22.1976 15.6034 22.9949 15.2283V18.1695C22.3471 18.5105 21.6495 18.7577 20.9021 18.9111C20.1713 19.0816 19.2744 19.1669 18.2114 19.1669Z" fill="#003B60"/>
<path d="M35.4225 18.9111L34.7 17.0185H34.6003C33.9692 17.8199 33.3214 18.3826 32.6571 18.7065C32.0093 19.0134 31.1539 19.1669 30.0909 19.1669C28.7788 19.1669 27.749 18.7833 27.0016 18.016C26.2542 17.2487 25.8804 16.1575 25.8804 14.7423C25.8804 13.2589 26.387 12.1677 27.4002 11.4686C28.4134 10.7525 29.9331 10.3604 31.9595 10.2922L34.3263 10.2154V9.60162C34.3263 8.18643 33.6204 7.47884 32.2086 7.47884C31.1124 7.47884 29.8335 7.81985 28.3718 8.50186L27.1511 5.91873C28.7123 5.08326 30.448 4.66552 32.3581 4.66552C34.1851 4.66552 35.5803 5.07473 36.5436 5.89315C37.5236 6.71157 38.0136 7.94773 38.0136 9.60162V18.9111H35.4225ZM34.3263 12.4405L32.8813 12.4917C31.8017 12.5258 30.9961 12.7304 30.4646 13.1055C29.9497 13.4635 29.6923 14.0177 29.6923 14.7679C29.6923 15.8421 30.2902 16.3792 31.4861 16.3792C32.3498 16.3792 33.0391 16.1234 33.554 15.6119C34.0688 15.1004 34.3263 14.4269 34.3263 13.5914V12.4405Z" fill="#003B60"/>
<path d="M54.37 18.9111H50.6578V10.7525C50.6578 9.74654 50.4834 8.99633 50.1346 8.50186C49.7858 7.99035 49.2294 7.7346 48.4654 7.7346C47.4356 7.7346 46.6882 8.09265 46.2231 8.80877C45.7581 9.50784 45.5255 10.6843 45.5255 12.3382V18.9111H41.8133V4.94685H44.6535L45.1518 6.73715H45.3511C45.7664 6.05513 46.3394 5.54362 47.0702 5.20261C47.801 4.8616 48.6232 4.6911 49.5367 4.6911C51.1146 4.6911 52.3104 5.13441 53.1243 6.02103C53.9548 6.8906 54.37 8.15233 54.37 9.80622V18.9111Z" fill="#003B60"/>
<path d="M67.6797 14.7679C67.6797 16.2001 67.1897 17.2914 66.2098 18.0416C65.2464 18.7918 63.8014 19.1669 61.8747 19.1669C60.8948 19.1669 60.056 19.0987 59.3584 18.9623C58.6608 18.8259 58.0048 18.6213 57.3902 18.3485V15.2027C58.0712 15.5437 58.8435 15.825 59.7072 16.0467C60.5709 16.2683 61.3349 16.3792 61.9993 16.3792C63.3447 16.3792 64.0174 15.9785 64.0174 15.1771C64.0174 14.8702 63.926 14.623 63.7433 14.4354C63.5772 14.2479 63.2699 14.0433 62.8215 13.8216C62.3896 13.5829 61.8083 13.3016 61.0775 12.9776C60.0311 12.5343 59.2588 12.1251 58.7605 11.75C58.2788 11.3578 57.9217 10.9145 57.6892 10.42C57.4733 9.92557 57.3653 9.31176 57.3653 8.57859C57.3653 7.33391 57.8304 6.37909 58.7605 5.71412C59.7072 5.0321 61.036 4.6911 62.7467 4.6911C64.3911 4.6911 65.9856 5.05768 67.5302 5.79085L66.4091 8.52744C65.7281 8.23758 65.0887 7.99888 64.4907 7.81132C63.9094 7.60672 63.3115 7.50442 62.6969 7.50442C61.6007 7.50442 61.0526 7.81132 61.0526 8.42514C61.0526 8.76615 61.227 9.06453 61.5758 9.32028C61.9246 9.55899 62.6969 9.92557 63.8928 10.42C64.9558 10.8633 65.7364 11.2811 66.2347 11.6732C66.733 12.0484 67.0984 12.4831 67.3309 12.9776C67.5634 13.4721 67.6797 14.0688 67.6797 14.7679Z" fill="#003B60"/>
<path d="M81.7855 9.24356H83.0312C84.1939 9.24356 85.0575 9.01338 85.6223 8.55302C86.2036 8.0756 86.4943 7.38506 86.4943 6.48139C86.4943 5.57772 86.2534 4.91275 85.7718 4.48649C85.2901 4.04318 84.5344 3.82152 83.5046 3.82152H81.7855V9.24356ZM90.3061 6.35351C90.3061 8.31431 89.7082 9.81475 88.5123 10.8548C87.3164 11.8949 85.614 12.4149 83.4049 12.4149H81.7855V18.9111H78.0235V0.650146H83.7039C85.8631 0.650146 87.4991 1.12756 88.6119 2.08238C89.7414 3.0372 90.3061 4.46092 90.3061 6.35351Z" fill="#F0E615"/>
<path d="M102.014 18.9111L101.291 17.0185H101.192C100.561 17.8199 99.9128 18.3826 99.2485 18.7065C98.6007 19.0134 97.7453 19.1669 96.6823 19.1669C95.3702 19.1669 94.3404 18.7833 93.593 18.016C92.8456 17.2487 92.4719 16.1575 92.4719 14.7423C92.4719 13.2589 92.9784 12.1677 93.9916 11.4686C95.0048 10.7525 96.5245 10.3604 98.5509 10.2922L100.918 10.2154V9.60162C100.918 8.18643 100.212 7.47884 98.8 7.47884C97.7038 7.47884 96.4249 7.81985 94.9633 8.50186L93.7425 5.91873C95.3038 5.08326 97.0394 4.66552 98.9495 4.66552C100.777 4.66552 102.172 5.07473 103.135 5.89315C104.115 6.71157 104.605 7.94773 104.605 9.60162V18.9111H102.014ZM100.918 12.4405L99.4727 12.4917C98.3931 12.5258 97.5875 12.7304 97.056 13.1055C96.5412 13.4635 96.2837 14.0177 96.2837 14.7679C96.2837 15.8421 96.8816 16.3792 98.0775 16.3792C98.9412 16.3792 99.6305 16.1234 100.145 15.6119C100.66 15.1004 100.918 14.4269 100.918 13.5914V12.4405Z" fill="#F0E615"/>
<path d="M120.961 18.9111H117.249V10.7525C117.249 9.74654 117.075 8.99633 116.726 8.50186C116.377 7.99035 115.821 7.7346 115.057 7.7346C114.027 7.7346 113.28 8.09265 112.815 8.80877C112.349 9.50784 112.117 10.6843 112.117 12.3382V18.9111H108.405V4.94685H111.245L111.743 6.73715H111.943C112.358 6.05513 112.931 5.54362 113.662 5.20261C114.392 4.8616 115.215 4.6911 116.128 4.6911C117.706 4.6911 118.902 5.13441 119.716 6.02103C120.546 6.8906 120.961 8.15233 120.961 9.80622V18.9111Z" fill="#F0E615"/>
<path d="M130.509 16.1234C131.157 16.1234 131.938 15.9785 132.851 15.6886V18.5275C131.921 18.9538 130.783 19.1669 129.438 19.1669C127.96 19.1669 126.88 18.7833 126.199 18.016C125.518 17.2317 125.178 16.0723 125.178 14.5377V7.81132H123.409V6.20006L125.452 4.92128L126.523 1.98008H128.89V4.94685H132.702V7.81132H128.89V14.5377C128.89 15.0833 129.039 15.484 129.338 15.7398C129.637 15.9955 130.027 16.1234 130.509 16.1234Z" fill="#F0E615"/>
<path d="M145.074 14.7679C145.074 16.2001 144.584 17.2914 143.604 18.0416C142.64 18.7918 141.195 19.1669 139.269 19.1669C138.289 19.1669 137.45 19.0987 136.752 18.9623C136.055 18.8259 135.399 18.6213 134.784 18.3485V15.2027C135.465 15.5437 136.238 15.825 137.101 16.0467C137.965 16.2683 138.729 16.3792 139.393 16.3792C140.739 16.3792 141.411 15.9785 141.411 15.1771C141.411 14.8702 141.32 14.623 141.137 14.4354C140.971 14.2479 140.664 14.0433 140.215 13.8216C139.784 13.5829 139.202 13.3016 138.471 12.9776C137.425 12.5343 136.653 12.1251 136.154 11.75C135.673 11.3578 135.316 10.9145 135.083 10.42C134.867 9.92557 134.759 9.31176 134.759 8.57859C134.759 7.33391 135.224 6.37909 136.154 5.71412C137.101 5.0321 138.43 4.6911 140.141 4.6911C141.785 4.6911 143.38 5.05768 144.924 5.79085L143.803 8.52744C143.122 8.23758 142.483 7.99888 141.885 7.81132C141.303 7.60672 140.705 7.50442 140.091 7.50442C138.995 7.50442 138.447 7.81132 138.447 8.42514C138.447 8.76615 138.621 9.06453 138.97 9.32028C139.319 9.55899 140.091 9.92557 141.287 10.42C142.35 10.8633 143.13 11.2811 143.629 11.6732C144.127 12.0484 144.492 12.4831 144.725 12.9776C144.957 13.4721 145.074 14.0688 145.074 14.7679Z" fill="#F0E615"/>
</g>
</svg>
