<svg width="63" height="63" viewBox="0 0 63 63" fill="none" xmlns="http://www.w3.org/2000/svg">
<g id="youtube (4) 1" clip-path="url(#clip0_1_750)">
<g id="Group">
<path id="Vector" fill-rule="evenodd" clip-rule="evenodd" d="M47.4068 62.3729H16.2203C12.0848 62.3727 8.11871 60.7298 5.19445 57.8055C2.2702 54.8813 0.627287 50.9152 0.627106 46.7797L0.627106 15.5932C0.627287 11.4577 2.2702 7.49161 5.19445 4.56735C8.11871 1.64309 12.0848 0.000180917 16.2203 0L47.4068 0C51.5423 0 55.5085 1.64285 58.4328 4.56715C61.3571 7.49145 63 11.4576 63 15.5932V46.7797C63 50.9152 61.3571 54.8814 58.4328 57.8057C55.5085 60.73 51.5423 62.3729 47.4068 62.3729Z" fill="#FF0000"/>
<path id="Vector_2" fill-rule="evenodd" clip-rule="evenodd" d="M29.8644 17.5424H47.4068C49.6554 17.5422 51.8181 16.6786 53.4482 15.1297C55.0783 13.5809 56.0514 11.4652 56.1665 9.2195C56.2816 6.97383 55.5298 4.76973 54.0666 3.06238C52.6033 1.35502 50.5402 0.274813 48.3034 0.0448305C48.0052 0.0282627 47.7099 0 47.4068 0H16.2203C12.0848 0.000180917 8.11871 1.64309 5.19445 4.56735C2.2702 7.49161 0.627287 11.4577 0.627106 15.5932L0.627106 46.7797C0.627287 39.0255 3.70769 31.589 9.19071 26.106C14.6737 20.623 22.1102 17.5426 29.8644 17.5424Z" fill="#FF5A51"/>
<path id="Vector_3" fill-rule="evenodd" clip-rule="evenodd" d="M47.4068 31.1865C44.3227 31.1865 41.3079 32.101 38.7436 33.8144C36.1793 35.5278 34.1807 37.9631 33.0005 40.8124C31.8203 43.6617 31.5115 46.797 32.1132 49.8218C32.7148 52.8466 34.1999 55.625 36.3807 57.8058C38.5614 59.9865 41.3399 61.4716 44.3647 62.0733C47.3895 62.675 50.5247 62.3662 53.374 61.186C56.2233 60.0058 58.6587 58.0071 60.3721 55.4428C62.0855 52.8785 63 49.8638 63 46.7797V15.5933C63 19.7288 61.3571 23.695 58.4328 26.6193C55.5085 29.5436 51.5423 31.1865 47.4068 31.1865Z" fill="#D5002C"/>
<path id="Vector_4" fill-rule="evenodd" clip-rule="evenodd" d="M25.0383 17.4216C24.743 17.2397 24.4045 17.1399 24.0578 17.1325C23.7111 17.1251 23.3687 17.2104 23.0659 17.3796C22.7632 17.5487 22.511 17.7956 22.3356 18.0948C22.1601 18.3939 22.0677 18.7345 22.0678 19.0813V43.2917C22.0677 43.6385 22.1601 43.979 22.3356 44.2782C22.511 44.5773 22.7632 44.8242 23.0659 44.9934C23.3687 45.1625 23.7111 45.2478 24.0578 45.2404C24.4045 45.2331 24.743 45.1333 25.0383 44.9514C30.0077 41.8942 39.9288 35.7884 44.7091 32.8462C44.9927 32.6718 45.2268 32.4277 45.3892 32.1372C45.5517 31.8467 45.6369 31.5193 45.6369 31.1865C45.6369 30.8536 45.5517 30.5263 45.3892 30.2358C45.2268 29.9452 44.9927 29.7011 44.7091 29.5268C39.9288 26.5845 30.0077 20.4788 25.0383 17.4216Z" fill="white"/>
</g>
</g>
<defs>
<clipPath id="clip0_1_750">
<rect width="62.3729" height="62.3729" fill="white" transform="translate(0.627106)"/>
</clipPath>
</defs>
</svg>
